<mxfile host="Electron" agent="Mozilla/5.0 (Windows NT 10.0; Win64; x64) AppleWebKit/537.36 (KHTML, like Gecko) draw.io/26.0.7 Chrome/128.0.6613.186 Electron/32.2.5 Safari/537.36" version="26.0.7">
  <diagram name="Page-1" id="58cdce13-f638-feb5-8d6f-7d28b1aa9fa0">
    <mxGraphModel dx="1036" dy="751" grid="1" gridSize="10" guides="1" tooltips="1" connect="1" arrows="1" fold="1" page="1" pageScale="1" pageWidth="850" pageHeight="1100" background="none" math="0" shadow="0">
      <root>
        <mxCell id="0" />
        <mxCell id="1" parent="0" />
        <mxCell id="7Ur62-ljRwc0DtUKtIMc-12" value="Container Components" style="rounded=0;whiteSpace=wrap;html=1;verticalAlign=top;align=left;fontStyle=1;fillColor=#dae8fc;strokeColor=#6c8ebf;" parent="1" vertex="1">
          <mxGeometry x="240" y="150" width="410" height="230" as="geometry" />
        </mxCell>
        <mxCell id="7Ur62-ljRwc0DtUKtIMc-16" value="Presentational Components" style="rounded=0;whiteSpace=wrap;html=1;fillColor=#e1d5e7;verticalAlign=top;align=right;fontStyle=1;strokeColor=#9673a6;" parent="1" vertex="1">
          <mxGeometry x="240" y="390" width="410" height="310" as="geometry" />
        </mxCell>
        <mxCell id="7Ur62-ljRwc0DtUKtIMc-3" value="&amp;lt;App /&amp;gt;" style="rounded=1;whiteSpace=wrap;html=1;fillColor=#d5e8d4;strokeColor=#82b366;" parent="1" vertex="1">
          <mxGeometry x="270" y="200" width="120" height="60" as="geometry" />
        </mxCell>
        <mxCell id="7Ur62-ljRwc0DtUKtIMc-4" value="&amp;lt;Layout /&amp;gt;" style="rounded=1;whiteSpace=wrap;html=1;fillColor=#d5e8d4;strokeColor=#82b366;" parent="1" vertex="1">
          <mxGeometry x="270" y="310" width="120" height="60" as="geometry" />
        </mxCell>
        <mxCell id="7Ur62-ljRwc0DtUKtIMc-5" value="&amp;lt;TaskList /&amp;gt;" style="rounded=1;whiteSpace=wrap;html=1;fillColor=#d5e8d4;strokeColor=#82b366;" parent="1" vertex="1">
          <mxGeometry x="360" y="440" width="120" height="60" as="geometry" />
        </mxCell>
        <mxCell id="7Ur62-ljRwc0DtUKtIMc-6" value="&amp;lt;TaskUpdate /&amp;gt;" style="rounded=1;whiteSpace=wrap;html=1;fillColor=#d5e8d4;strokeColor=#82b366;" parent="1" vertex="1">
          <mxGeometry x="510" y="440" width="120" height="60" as="geometry" />
        </mxCell>
        <mxCell id="7Ur62-ljRwc0DtUKtIMc-7" value="&amp;lt;Contact /&amp;gt;" style="rounded=1;whiteSpace=wrap;html=1;fillColor=#d5e8d4;strokeColor=#82b366;" parent="1" vertex="1">
          <mxGeometry x="360" y="523" width="120" height="60" as="geometry" />
        </mxCell>
        <mxCell id="7Ur62-ljRwc0DtUKtIMc-8" value="" style="endArrow=classic;html=1;rounded=0;exitX=0.5;exitY=1;exitDx=0;exitDy=0;entryX=0.5;entryY=0;entryDx=0;entryDy=0;" parent="1" source="7Ur62-ljRwc0DtUKtIMc-3" target="7Ur62-ljRwc0DtUKtIMc-4" edge="1">
          <mxGeometry width="50" height="50" relative="1" as="geometry">
            <mxPoint x="500" y="450" as="sourcePoint" />
            <mxPoint x="550" y="400" as="targetPoint" />
          </mxGeometry>
        </mxCell>
        <mxCell id="7Ur62-ljRwc0DtUKtIMc-9" value="" style="endArrow=classic;html=1;rounded=0;entryX=0;entryY=0.5;entryDx=0;entryDy=0;" parent="1" source="7Ur62-ljRwc0DtUKtIMc-4" target="7Ur62-ljRwc0DtUKtIMc-5" edge="1">
          <mxGeometry width="50" height="50" relative="1" as="geometry">
            <mxPoint x="330" y="370" as="sourcePoint" />
            <mxPoint x="380" y="320" as="targetPoint" />
            <Array as="points">
              <mxPoint x="330" y="470" />
            </Array>
          </mxGeometry>
        </mxCell>
        <mxCell id="7Ur62-ljRwc0DtUKtIMc-10" value="" style="endArrow=classic;html=1;rounded=0;entryX=0;entryY=0.5;entryDx=0;entryDy=0;" parent="1" target="7Ur62-ljRwc0DtUKtIMc-7" edge="1">
          <mxGeometry width="50" height="50" relative="1" as="geometry">
            <mxPoint x="330" y="370" as="sourcePoint" />
            <mxPoint x="550" y="400" as="targetPoint" />
            <Array as="points">
              <mxPoint x="330" y="460" />
              <mxPoint x="330" y="553" />
            </Array>
          </mxGeometry>
        </mxCell>
        <mxCell id="7Ur62-ljRwc0DtUKtIMc-11" value="" style="endArrow=classic;html=1;rounded=0;exitX=1;exitY=0.5;exitDx=0;exitDy=0;entryX=0;entryY=0.5;entryDx=0;entryDy=0;" parent="1" source="7Ur62-ljRwc0DtUKtIMc-5" target="7Ur62-ljRwc0DtUKtIMc-6" edge="1">
          <mxGeometry width="50" height="50" relative="1" as="geometry">
            <mxPoint x="500" y="490" as="sourcePoint" />
            <mxPoint x="550" y="440" as="targetPoint" />
          </mxGeometry>
        </mxCell>
        <mxCell id="7Ur62-ljRwc0DtUKtIMc-14" value="&amp;lt;NoPage /&amp;gt;" style="rounded=1;whiteSpace=wrap;html=1;fillColor=#d5e8d4;strokeColor=#82b366;" parent="1" vertex="1">
          <mxGeometry x="360" y="604" width="120" height="60" as="geometry" />
        </mxCell>
        <mxCell id="7Ur62-ljRwc0DtUKtIMc-15" value="" style="endArrow=classic;html=1;rounded=0;exitX=0.5;exitY=1;exitDx=0;exitDy=0;entryX=0;entryY=0.5;entryDx=0;entryDy=0;" parent="1" source="7Ur62-ljRwc0DtUKtIMc-4" target="7Ur62-ljRwc0DtUKtIMc-14" edge="1">
          <mxGeometry width="50" height="50" relative="1" as="geometry">
            <mxPoint x="500" y="330" as="sourcePoint" />
            <mxPoint x="550" y="280" as="targetPoint" />
            <Array as="points">
              <mxPoint x="329" y="510" />
              <mxPoint x="330" y="634" />
            </Array>
          </mxGeometry>
        </mxCell>
      </root>
    </mxGraphModel>
  </diagram>
</mxfile>
